<svg width="78" height="55" viewBox="0 0 78 55" fill="none" xmlns="http://www.w3.org/2000/svg">
<path d="M41.7023 26.4185C43.4533 25.1549 44.9209 23.6011 46.1052 21.757C47.2895 19.913 48.1103 17.915 48.5677 15.763C49.0251 13.6111 49.0879 11.452 48.7561 9.28566C48.4242 7.11932 47.7155 5.1029 46.6298 3.23639C49.4811 4.25139 51.651 6.06721 53.1395 8.68387C54.628 11.3005 55.0604 14.0761 54.4366 17.0105C53.8129 19.945 52.289 22.3047 49.8649 24.0897C47.4408 25.8747 44.7199 26.651 41.7023 26.4185ZM52.8207 53.4713L54.6919 44.668C55.0661 42.9073 55.0309 41.1491 54.5863 39.3933C54.1416 37.6374 53.4134 36.013 52.4017 34.5201C54.7089 35.9306 56.7781 37.5589 58.6092 39.4049C60.4404 41.251 61.091 43.4212 60.5608 45.9155L58.6896 54.7188L52.8207 53.4713ZM63.0557 34.1777L64.3032 28.3088L58.4343 27.0613L59.6818 21.1924L65.5507 22.4399L66.7981 16.571L72.667 17.8185L71.4196 23.6874L77.2884 24.9349L76.041 30.8037L70.1721 29.5563L68.9246 35.4252L63.0557 34.1777ZM28.4661 23.7584C25.2382 23.0723 22.7193 21.3356 20.9092 18.5484C19.0992 15.7611 18.5372 12.7536 19.2233 9.52569C19.9094 6.2978 21.6461 3.77883 24.4333 1.96877C27.2206 0.15872 30.2281 -0.403253 33.456 0.282857C36.6839 0.968966 39.2029 2.70564 41.0129 5.49288C42.823 8.28012 43.385 11.2877 42.6989 14.5156C42.0127 17.7435 40.2761 20.2624 37.4888 22.0725C34.7016 23.8825 31.694 24.4445 28.4661 23.7584ZM0.000692844 42.2441L1.74715 34.0276C2.1006 32.3648 2.85341 30.9274 4.00556 29.7154C5.15771 28.5035 6.52092 27.6815 8.09516 27.2493C11.4497 26.3777 14.7726 25.8956 18.0638 25.8028C21.355 25.7101 24.6145 26.0067 27.8424 26.6929C31.0703 27.379 34.1687 28.4337 37.1376 29.8571C40.1066 31.2805 42.9461 33.0725 45.656 35.2332C46.9184 36.2682 47.8294 37.5737 48.389 39.1495C48.9486 40.7252 49.0517 42.3446 48.6983 44.0074L46.9518 52.2238L0.000692844 42.2441ZM29.7136 17.8895C31.3275 18.2326 32.8313 17.9516 34.225 17.0466C35.6186 16.1415 36.4869 14.882 36.83 13.2681C37.173 11.6542 36.892 10.1504 35.987 8.75676C35.082 7.36314 33.8225 6.4948 32.2085 6.15174C30.5946 5.80869 29.0908 6.08968 27.6972 6.9947C26.3036 7.89973 25.4352 9.15922 25.0922 10.7732C24.7491 12.3871 25.0301 13.8909 25.9351 15.2845C26.8402 16.6781 28.0997 17.5465 29.7136 17.8895ZM7.11705 37.6227L42.3304 45.1075L42.8294 42.7599C42.9437 42.222 42.9132 41.7043 42.7378 41.2069C42.5623 40.7096 42.2805 40.2919 41.8923 39.9538C39.532 38.0719 37.0771 36.515 34.5275 35.283C31.9779 34.051 29.3337 33.1439 26.5949 32.5617C23.8561 31.9796 21.0716 31.7328 18.2413 31.8212C15.4111 31.9097 12.5351 32.3336 9.61344 33.0927C9.12129 33.2437 8.69395 33.5106 8.3314 33.8936C7.96884 34.2766 7.73039 34.7371 7.61604 35.2751L7.11705 37.6227Z" fill="#E3E2E7"/>
</svg>
